<?xml version="1.0" encoding="iso-8859-1"?>
<!-- Generator: Adobe Illustrator 19.0.0, SVG Export Plug-In . SVG Version: 6.00 Build 0)  -->
<svg version="1.1" id="Capa_1" xmlns="http://www.w3.org/2000/svg" xmlns:xlink="http://www.w3.org/1999/xlink" x="0px" y="0px"
	 viewBox="0 0 512 512" style="enable-background:new 0 0 512 512;" xml:space="preserve">
<g>
	<g>
		<path d="M306.522,237.352c-14.054-3.821-26.632-11.562-36.373-22.386C267.305,211.805,263.252,210,259,210h-6
			c-4.252,0-8.305,1.805-11.149,4.966c-9.741,10.824-22.319,18.565-36.373,22.386c-7.994,2.174-12.713,10.416-10.539,18.41
			c2.173,7.995,10.418,12.712,18.41,10.539c15.908-4.326,30.463-12.248,42.651-23.144c12.188,10.896,26.743,18.818,42.651,23.144
			c1.317,0.358,2.642,0.529,3.944,0.529c6.602,0,12.65-4.392,14.466-11.068C319.235,247.768,314.516,239.526,306.522,237.352z"/>
	</g>
</g>
<g>
	<g>
		<path d="M453.882,336.67l-70.093-34.555c-6.103-9.362-15.473-16.007-25.691-18.885C378.589,259.551,391,228.698,391,195
			c0-14.582,0-105.385,0-119.999V75c0-41.355-33.645-75-75-75H196C138.103,0,91,47.103,91,105v30c0,8.284,6.716,15,15,15h15v45
			c0,33.698,12.411,64.551,32.902,88.23c-10.319,2.907-19.651,9.614-25.698,18.898l-69.161,34.58
			C23.176,354.642,0,391.505,0,430.623V497c0,8.284,6.716,15,15,15c8.115,0,473.868,0,482,0c8.284,0,15-6.716,15-15v-66.377
			C512,390.831,489.536,354.497,453.882,336.67z M361,326.622v36.755c0,10.252-10.022,17.471-19.744,14.23
			c-4.619-1.539,7.426,2.476-40.256-13.419v-38.377l40.256-13.419C350.981,309.15,361,316.372,361,326.622z M331,32.57
			c17.461,6.191,30,22.874,30,42.43v31.639c-18.924-17.407-30-42.057-30-68.721V32.57z M121,105c0-41.355,33.645-75,75-75h103.932
			c-7.301,50.817-51.127,90-103.932,90h-75V105z M151,195v-45h45c48.403,0,90.93-25.61,114.763-63.987
			c2.455,5.806,5.344,11.446,8.687,16.854c10.407,16.839,24.66,30.857,41.55,40.985V195c0,57.897-47.103,105-105,105
			C198.103,300,151,252.897,151,195z M271,330v30h-30v-30H271z M151,326.623c0-10.251,10.022-17.472,19.744-14.23L211,325.812
			v38.377c-7.155,2.385-29.215,9.739-40.256,13.419c-9.724,3.243-19.744-3.98-19.744-14.23V326.623z M121,482v-47
			c0-8.284-6.716-15-15-15s-15,6.716-15,15v47H30v-51.377c0-27.854,16.666-54.186,42.459-67.082L121,339.271v24.107
			c0,30.75,30.058,52.413,59.23,42.691l4.004-1.334L229.754,482H121z M213.338,395.032L228.433,390h55.134l15.095,5.032L256,467.449
			L213.338,395.032z M482,482h-61v-47c0-8.284-6.716-15-15-15s-15,6.716-15,15v47H282.246l45.52-77.267l4.004,1.334
			c4.739,1.58,9.579,2.357,14.374,2.357c23.4,0,44.856-18.937,44.856-45.048v-24.259l49.541,24.422
			C466.114,376.328,482,402.032,482,430.623V482z"/>
	</g>
</g>
<g>
</g>
<g>
</g>
<g>
</g>
<g>
</g>
<g>
</g>
<g>
</g>
<g>
</g>
<g>
</g>
<g>
</g>
<g>
</g>
<g>
</g>
<g>
</g>
<g>
</g>
<g>
</g>
<g>
</g>
</svg>
