<?xml version="1.0"?>
<svg xmlns="http://www.w3.org/2000/svg" viewBox="0 0 24 24" enable-background="new 0 0 24 24">
    <path d="M 10 4 C 8.9574909 4 8.296703 4.5063824 7.84375 5.09375 C 7.6014344 5.0501875 7.361901 5.0140216 7.125 5.03125 C 6.7140493 5.061136 6.3138621 5.1734189 5.96875 5.34375 C 5.2785258 5.6844122 4.7094786 6.1903988 4.03125 6.75 L 4 6.75 L 0.34375 9.96875 L 0 10.25 L 0 10.71875 L 0 20 L 0 21 L 1 21 L 5.59375 21 C 7.7625852 21 9.1705418 20.481914 10.1875 19.71875 C 11.204458 18.955586 11.798279 18.099409 12.6875 17.34375 L 13.0625 17 L 21 17 C 22.656 17 24 15.656 24 14 L 24 10 L 24 7 C 24 5.344 22.656 4 21 4 L 10 4 z M 10 6 L 21 6 C 21.552 6 22 6.449 22 7 L 9 7 C 9 6.449 9.448 6 10 6 z M 7 7.0625 L 7 10 L 7 13.25 L 6.90625 13.3125 A 1.0001 1.0001 0 1 0 7.84375 15.0625 L 11.4375 13.15625 C 12.168285 12.766049 12.893747 12.448305 13.40625 12.34375 C 13.918753 12.239195 13.985561 12.25377 14.125 12.4375 C 14.31105 12.682947 14.320106 12.693566 14.15625 13.03125 C 13.992394 13.368934 13.546074 13.866733 13.03125 14.34375 L 11.375 15.84375 L 11.375 15.8125 C 10.280221 16.742841 9.6627918 17.604164 8.96875 18.125 C 8.2747082 18.645836 7.4789148 19 5.59375 19 L 2 19 L 2 11.15625 L 5.3125 8.25 L 5.3125 8.28125 C 5.9892714 7.7228512 6.5182242 7.3010878 6.875 7.125 C 6.9320106 7.0968623 6.9550796 7.0823671 7 7.0625 z M 9 10 L 22 10 L 22 14 C 22 14.551 21.552 15 21 15 L 15.1875 15 C 15.473763 14.668318 15.738973 14.315388 15.9375 13.90625 C 16.307644 13.143434 16.3377 12.035303 15.71875 11.21875 C 15.052189 10.340477 13.896747 10.192055 13 10.375 C 12.112748 10.556008 11.279117 10.990888 10.5 11.40625 C 10.4917 11.41065 10.47707 11.40185 10.46875 11.40625 L 9 12.1875 L 9 10 z"/>
</svg>
