<?xml version="1.0"?>
<svg xmlns="http://www.w3.org/2000/svg" viewBox="0 0 24 24" enable-background="new 0 0 24 24">
    <path style="text-indent:0;text-align:start;line-height:normal;text-transform:none;block-progression:tb;-inkscape-font-specification:Bitstream Vera Sans" d="M 10.5 2 C 9.1391194 2 8.0898787 2.6925951 7.28125 3.59375 C 6.7762645 3.268766 6.2148168 3 5.5 3 C 3.5761905 3 2 4.5761905 2 6.5 C 2 6.694306 2.0691934 7.0908562 2.21875 7.40625 C 2.0983893 7.5711222 2 7.7543624 2 8 L 2 18 C 2 20.2 3.8 22 6 22 L 15 22 C 17.2 22 19 20.2 19 18 L 19 16.84375 C 20.72456 16.399213 22 14.863749 22 13 L 22 10 C 22 9.4777778 21.814531 8.9395305 21.4375 8.5625 C 21.060469 8.1854695 20.522222 8 20 8 L 19 8 C 19 7.7543624 18.901611 7.5711222 18.78125 7.40625 C 18.930806 7.0908562 19 6.694306 19 6.5 C 19 4.5761905 17.42381 3 15.5 3 C 14.785183 3 14.223736 3.268766 13.71875 3.59375 C 12.910121 2.6925951 11.860881 2 10.5 2 z M 10.5 4 C 11.519048 4 12.267184 4.547129 12.71875 5.375 A 1.0001 1.0001 0 0 0 14.3125 5.59375 C 14.718219 5.1880309 15.033333 5 15.5 5 C 16.37619 5 17 5.6238095 17 6.5 C 17 6.6 16.994954 6.5819679 17 6.5625 A 1.0001 1.0001 0 0 0 16.84375 7 L 15 7 C 13.9 7 13 7.9 13 9 C 13 10 14 10.9 14 12 C 14 13.1 13.1 14 12 14 C 10.9 14 10 13.1 10 12 C 10 10.9 11 10 11 9 C 11 7.9 10.1 7 9 7 L 4.15625 7 A 1.0001 1.0001 0 0 0 4 6.5625 C 4.0050464 6.5819679 4 6.6 4 6.5 C 4 5.6238095 4.6238095 5 5.5 5 C 5.9666667 5 6.2817809 5.1880309 6.6875 5.59375 A 1.0001 1.0001 0 0 0 8.28125 5.375 C 8.732816 4.547129 9.4809524 4 10.5 4 z M 4 9 L 6 9 L 6 18 C 6 19.1 6.9 20 8 20 L 6 20 C 4.9 20 4 19.1 4 18 L 4 9 z M 19 10 L 20 10 L 20 13 C 20 13.810108 19.614932 14.427761 19 14.75 L 19 10 z" overflow="visible" enable-background="accumulate" font-family="Bitstream Vera Sans"/>
</svg>
