<?xml version="1.0"?>
<svg xmlns="http://www.w3.org/2000/svg" viewBox="0 0 24 24">
    <path d="M 11 2 C 10.448 2 10 2.448 10 3 C 10 3.552 10.448 4 11 4 L 11 5 L 6 5 C 5.448 5 5 5.448 5 6 L 5 9 C 5 9.552 5.448 10 6 10 L 18 10 C 18.552 10 19 9.552 19 9 L 19 6 C 19 5.448 18.552 5 18 5 L 13 5 L 13 4 C 13.552 4 14 3.552 14 3 C 14 2.448 13.552 2 13 2 L 11 2 z M 10 7 L 14 7 C 14.276 7 14.5 7.224 14.5 7.5 C 14.5 7.776 14.276 8 14 8 L 10 8 C 9.724 8 9.5 7.776 9.5 7.5 C 9.5 7.224 9.724 7 10 7 z M 6 11 C 5.448 11 5 11.448 5 12 L 5 15 C 5 15.552 5.448 16 6 16 L 18 16 C 18.552 16 19 15.552 19 15 L 19 12 C 19 11.448 18.552 11 18 11 L 6 11 z M 6 17 C 5.448 17 5 17.448 5 18 L 5 21 C 5 21.552 5.448 22 6 22 L 18 22 C 18.552 22 19 21.552 19 21 L 19 18 C 19 17.448 18.552 17 18 17 L 6 17 z"/>
</svg>
