<?xml version="1.0" encoding="iso-8859-1"?>
<!-- Generator: Adobe Illustrator 19.0.0, SVG Export Plug-In . SVG Version: 6.00 Build 0)  -->
<svg version="1.1" id="Capa_1" xmlns="http://www.w3.org/2000/svg" xmlns:xlink="http://www.w3.org/1999/xlink" x="0px" y="0px"
	 viewBox="0 0 512 512" style="enable-background:new 0 0 512 512;" xml:space="preserve">
<g>
	<g>
		<path d="M425.823,312.823h-26.51v-48.911H220.42v248.088h178.893v-48.911h26.51c24.489,0,44.412-19.923,44.412-44.413v-61.441
			C470.236,332.746,450.313,312.823,425.823,312.823z M369.312,481.999H250.421V293.913h118.891V481.999z M440.234,418.676
			c0,7.946-6.464,14.412-14.411,14.412h-26.51v-90.263h26.51c7.946,0,14.411,6.465,14.411,14.412V418.676z"/>
	</g>
</g>
<g>
	<g>
		<path d="M394.464,0c-15.872,0-29.526,9.672-35.382,23.431h-64.217v43.528c-9.067,2.791-17.059,8.048-23.205,14.98h-72.099V58.77
			c0-32.406-26.364-58.77-58.77-58.77h-40.257c-32.406,0-58.77,26.364-58.77,58.77V512h157.796V149.08h71.63
			c1.657,1.922,3.453,3.718,5.375,5.375v87.079h67.141v-87.548c10.56-9.363,17.232-23.017,17.232-38.206
			c0-22.943-15.209-42.398-36.072-48.821V53.432h34.216c5.855,13.759,19.51,23.431,35.382,23.431
			c21.191,0,38.432-17.241,38.432-38.432C432.897,17.241,415.656,0,394.464,0z M169.559,81.939v67.141v332.919H71.766V58.77
			c0-15.863,12.906-28.768,28.768-28.768h40.257c15.863,0,28.768,12.906,28.768,28.768V81.939z M199.561,119.08v-7.138h59.377
			c-0.019,0.255-0.028,0.51-0.043,0.765c-0.015,0.247-0.031,0.493-0.042,0.74c-0.035,0.776-0.059,1.554-0.059,2.334
			c0,1.023,0.039,2.037,0.099,3.046c0.005,0.084,0.003,0.169,0.008,0.253H199.561z M313.706,211.533h-7.138v-44.787
			c0.127,0.008,0.255,0.011,0.382,0.018c0.227,0.013,0.455,0.022,0.683,0.032c0.635,0.028,1.271,0.044,1.908,0.048
			c0.109,0.001,0.217,0.008,0.326,0.008c0.038,0,0.076-0.003,0.114-0.003c0.761-0.002,1.521-0.022,2.28-0.058
			c0.21-0.01,0.419-0.024,0.628-0.036c0.272-0.015,0.545-0.025,0.817-0.046V211.533z M330.936,115.78
			c0.002,7.956-4.433,14.895-10.96,18.479c-0.037,0.02-0.073,0.043-0.111,0.063c-0.575,0.311-1.165,0.596-1.77,0.854
			c-0.045,0.019-0.091,0.035-0.136,0.054c-0.529,0.221-1.07,0.416-1.62,0.594c-0.127,0.041-0.254,0.083-0.382,0.122
			c-0.597,0.181-1.202,0.341-1.82,0.469c-0.05,0.01-0.102,0.016-0.153,0.026c-0.562,0.112-1.134,0.196-1.711,0.262
			c-0.166,0.019-0.332,0.036-0.498,0.051c-0.63,0.057-1.265,0.097-1.909,0.097c-0.64,0-1.271-0.04-1.896-0.096
			c-0.165-0.015-0.33-0.031-0.495-0.05c-0.608-0.069-1.211-0.156-1.802-0.276c-0.082-0.017-0.161-0.04-0.243-0.058
			c-0.526-0.113-1.044-0.249-1.555-0.401c-0.168-0.05-0.335-0.101-0.501-0.154c-0.576-0.187-1.146-0.389-1.699-0.623
			c-0.007-0.003-0.014-0.007-0.021-0.01c-0.563-0.239-1.109-0.509-1.646-0.794c-0.12-0.064-0.239-0.129-0.358-0.195
			c-3.435-1.913-6.279-4.756-8.194-8.19c-0.07-0.125-0.138-0.25-0.205-0.377c-0.28-0.528-0.545-1.065-0.781-1.618
			c-0.006-0.015-0.014-0.029-0.02-0.044c-0.233-0.551-0.434-1.118-0.62-1.691c-0.055-0.169-0.106-0.338-0.157-0.508
			c-0.151-0.508-0.286-1.023-0.399-1.547c-0.018-0.083-0.042-0.165-0.059-0.248c-0.12-0.591-0.206-1.193-0.276-1.8
			c-0.019-0.165-0.035-0.33-0.05-0.496c-0.056-0.626-0.096-1.256-0.096-1.896c0-0.644,0.04-1.279,0.097-1.908
			c0.015-0.167,0.033-0.333,0.052-0.499c0.066-0.574,0.149-1.142,0.26-1.701c0.011-0.054,0.017-0.109,0.028-0.163
			c0.127-0.616,0.288-1.219,0.468-1.814c0.04-0.131,0.083-0.262,0.125-0.392c0.177-0.545,0.37-1.082,0.589-1.606
			c0.02-0.049,0.038-0.098,0.058-0.147c0.257-0.604,0.542-1.194,0.853-1.768c0.02-0.036,0.042-0.072,0.062-0.108
			c3.584-6.527,10.523-10.963,18.481-10.963C321.484,94.709,330.936,104.162,330.936,115.78z M394.464,46.862
			c-4.648,0-8.43-3.782-8.43-8.43c0-4.648,3.782-8.43,8.43-8.43c4.648,0,8.43,3.782,8.43,8.43
			C402.894,43.08,399.112,46.862,394.464,46.862z"/>
	</g>
</g>
<g>
	<g>
		<rect x="270.053" y="311.005" width="30.001" height="153.907"/>
	</g>
</g>
<g>
	<g>
		<rect x="319.686" y="311.005" width="30.001" height="153.907"/>
	</g>
</g>
<g>
</g>
<g>
</g>
<g>
</g>
<g>
</g>
<g>
</g>
<g>
</g>
<g>
</g>
<g>
</g>
<g>
</g>
<g>
</g>
<g>
</g>
<g>
</g>
<g>
</g>
<g>
</g>
<g>
</g>
</svg>
